<svg width="64" height="63" viewBox="0 0 64 63" fill="none" xmlns="http://www.w3.org/2000/svg">
<path d="M36.5231 61.6494C40.2799 59.0872 63 42.83 63 24.4095C63 11.4808 50.9117 1 36 1C21.0883 1 9 11.4808 9 24.4095C9 42.83 31.72 59.0872 35.4769 61.6494C35.8028 61.8717 36.1972 61.8717 36.5231 61.6494Z" fill="#447151" stroke="#447151" stroke-width="2" stroke-linecap="round" stroke-linejoin="round"/>
<path d="M34.8516 49.5469C32.0911 49.5469 29.6302 49.0391 27.4688 48.0234C25.3203 47.0078 23.6146 45.6081 22.3516 43.8242C21.0885 42.0404 20.431 39.9961 20.3789 37.6914H28.582C28.6732 39.2409 29.3242 40.4974 30.5352 41.4609C31.7461 42.4245 33.1849 42.9062 34.8516 42.9062C36.1797 42.9062 37.3516 42.6133 38.3672 42.0273C39.3958 41.4284 40.1966 40.6016 40.7695 39.5469C41.3555 38.4792 41.6484 37.2552 41.6484 35.875C41.6484 34.4687 41.349 33.2318 40.75 32.1641C40.1641 31.0964 39.3503 30.263 38.3086 29.6641C37.2669 29.0651 36.0755 28.7591 34.7344 28.7461C33.5625 28.7461 32.4232 28.987 31.3164 29.4687C30.2227 29.9505 29.3698 30.6081 28.7578 31.4414L21.2383 30.0938L23.1328 9H47.5859V15.9141H30.1055L29.0703 25.9336H29.3047C30.0078 24.944 31.069 24.1237 32.4883 23.4727C33.9076 22.8216 35.4961 22.4961 37.2539 22.4961C39.6628 22.4961 41.8112 23.0625 43.6992 24.1953C45.5872 25.3281 47.0781 26.8841 48.1719 28.8633C49.2656 30.8294 49.806 33.0951 49.793 35.6602C49.806 38.3555 49.181 40.7513 47.918 42.8477C46.668 44.931 44.9167 46.5716 42.6641 47.7695C40.4245 48.9544 37.8203 49.5469 34.8516 49.5469Z" fill="white"/>
</svg>
