<svg width="106" height="35" viewBox="0 0 106 35" fill="none" xmlns="http://www.w3.org/2000/svg">
<rect width="103.67" height="31" rx="15.5" fill="#447151" fill-opacity="0.5"/>
<rect x="0.5" y="0.5" width="102.67" height="30" rx="15" stroke="white" stroke-opacity="0.81"/>
<path d="M10.6397 20V9.09091H17.2235V10.2628H11.9607V13.9489H16.8826V15.1207H11.9607V18.8281H17.3088V20H10.6397ZM28.2551 9.09091V20H26.9767L21.0321 11.4347H20.9256V20H19.6046V9.09091H20.883L26.8489 17.6776H26.9554V9.09091H28.2551ZM38.3559 12.5C38.2387 12.1413 38.0842 11.82 37.8925 11.5359C37.7043 11.2482 37.4788 11.0032 37.216 10.8008C36.9567 10.5984 36.662 10.4439 36.3317 10.3374C36.0015 10.2308 35.6393 10.1776 35.2451 10.1776C34.5988 10.1776 34.0111 10.3445 33.482 10.6783C32.9528 11.0121 32.532 11.5039 32.2195 12.1538C31.907 12.8036 31.7508 13.6009 31.7508 14.5455C31.7508 15.4901 31.9088 16.2873 32.2249 16.9371C32.5409 17.587 32.9688 18.0788 33.5086 18.4126C34.0484 18.7464 34.6556 18.9134 35.3303 18.9134C35.9553 18.9134 36.5058 18.7802 36.9816 18.5138C37.461 18.244 37.8339 17.864 38.1002 17.3739C38.3701 16.8803 38.505 16.2997 38.505 15.6321L38.9099 15.7173H35.6286V14.5455H39.7835V15.7173C39.7835 16.6158 39.5917 17.397 39.2082 18.0611C38.8282 18.7251 38.3026 19.2401 37.6315 19.6058C36.9638 19.968 36.1968 20.1491 35.3303 20.1491C34.3644 20.1491 33.5157 19.9219 32.7842 19.4673C32.0562 19.0128 31.488 18.3665 31.0796 17.5284C30.6748 16.6903 30.4724 15.696 30.4724 14.5455C30.4724 13.6825 30.5878 12.9066 30.8186 12.2177C31.053 11.5252 31.3832 10.9357 31.8094 10.4492C32.2355 9.96271 32.7398 9.58984 33.3222 9.33061C33.9045 9.07138 34.5455 8.94176 35.2451 8.94176C35.8204 8.94176 36.3566 9.02876 36.8538 9.20277C37.3545 9.37322 37.8001 9.61648 38.1908 9.93253C38.5849 10.245 38.9134 10.6197 39.1762 11.0565C39.439 11.4897 39.6201 11.9709 39.7195 12.5H38.3559Z" fill="white"/>
<rect x="50.0879" width="55.9121" height="30" rx="15" fill="white" fill-opacity="0.63"/>
<rect x="50.5879" y="0.5" width="54.9121" height="29" rx="14.5" stroke="white" stroke-opacity="0.81"/>
<g style="mix-blend-mode:multiply">
<path d="M64.2783 9.09091V20H62.9999L57.0553 11.4347H56.9487V20H55.6277V9.09091H56.9061L62.872 17.6776H62.9785V9.09091H64.2783ZM76.1262 14.5455C76.1262 15.696 75.9184 16.6903 75.503 17.5284C75.0875 18.3665 74.5175 19.0128 73.7931 19.4673C73.0687 19.9219 72.2412 20.1491 71.3108 20.1491C70.3804 20.1491 69.553 19.9219 68.8286 19.4673C68.1042 19.0128 67.5342 18.3665 67.1187 17.5284C66.7032 16.6903 66.4955 15.696 66.4955 14.5455C66.4955 13.3949 66.7032 12.4006 67.1187 11.5625C67.5342 10.7244 68.1042 10.0781 68.8286 9.62358C69.553 9.16903 70.3804 8.94176 71.3108 8.94176C72.2412 8.94176 73.0687 9.16903 73.7931 9.62358C74.5175 10.0781 75.0875 10.7244 75.503 11.5625C75.9184 12.4006 76.1262 13.3949 76.1262 14.5455ZM74.8478 14.5455C74.8478 13.6009 74.6898 12.8036 74.3737 12.1538C74.0612 11.5039 73.6368 11.0121 73.1006 10.6783C72.5679 10.3445 71.9714 10.1776 71.3108 10.1776C70.6503 10.1776 70.052 10.3445 69.5157 10.6783C68.9831 11.0121 68.5587 11.5039 68.2427 12.1538C67.9302 12.8036 67.7739 13.6009 67.7739 14.5455C67.7739 15.4901 67.9302 16.2873 68.2427 16.9371C68.5587 17.587 68.9831 18.0788 69.5157 18.4126C70.052 18.7464 70.6503 18.9134 71.3108 18.9134C71.9714 18.9134 72.5679 18.7464 73.1006 18.4126C73.6368 18.0788 74.0612 17.587 74.3737 16.9371C74.6898 16.2873 74.8478 15.4901 74.8478 14.5455ZM78.3474 20V9.09091H82.0335C82.8858 9.09091 83.5853 9.23651 84.1322 9.5277C84.6791 9.81534 85.0839 10.2113 85.3467 10.7156C85.6095 11.2198 85.7409 11.7933 85.7409 12.4361C85.7409 13.0788 85.6095 13.6488 85.3467 14.146C85.0839 14.6431 84.6809 15.0337 84.1375 15.3178C83.5942 15.5984 82.9 15.7386 82.0548 15.7386H79.0719V14.5455H82.0122C82.5946 14.5455 83.0633 14.4602 83.4184 14.2898C83.7771 14.1193 84.0363 13.8778 84.1961 13.5653C84.3595 13.2493 84.4412 12.8729 84.4412 12.4361C84.4412 11.9993 84.3595 11.6175 84.1961 11.2908C84.0328 10.9641 83.7718 10.712 83.4131 10.5344C83.0545 10.3533 82.5804 10.2628 81.9909 10.2628H79.6684V20H78.3474ZM83.4824 15.0994L86.167 20H84.6329L81.9909 15.0994H83.4824Z" fill="#43674D"/>
</g>
</svg>
