<svg width="148" height="129" viewBox="0 0 148 129" fill="none" xmlns="http://www.w3.org/2000/svg">
<path d="M147.5 64.5C147.5 99.7839 114.66 128.5 74 128.5C33.3403 128.5 0.5 99.7839 0.5 64.5C0.5 29.2161 33.3403 0.5 74 0.5C114.66 0.5 147.5 29.2161 147.5 64.5Z" fill="white" stroke="#447151"/>
<path d="M73.9054 54.5771C63.7058 54.5771 54.0233 62.6934 55.2412 73.8953C55.3358 74.7656 55.4487 75.6787 55.5799 76.6499C55.9704 79.5402 58.2487 81.6401 60.8905 81.6401H63.9103L66.1135 96.7707C66.7363 101.048 70.0737 104.193 73.9901 104.193C77.9065 104.193 81.2438 101.048 81.8666 96.7707L84.0698 81.6401H87.1285C89.7531 81.6401 92.0248 79.5686 92.4252 76.6993C92.5531 75.7825 92.6631 74.9167 92.7551 74.0866C94.0043 62.8048 84.1804 54.5771 73.9054 54.5771Z" fill="#447151" stroke="#447151" stroke-width="1.5" stroke-linejoin="round"/>
<path d="M75.451 54.577C85.0672 54.577 92.8627 48.4683 92.8627 40.9328C92.8627 33.3973 85.0672 27.2886 75.451 27.2886C65.8347 27.2886 58.0392 33.3973 58.0392 40.9328C58.0392 48.4683 65.8347 54.577 75.451 54.577Z" fill="#447151" stroke="#447151" stroke-width="1.5" stroke-linecap="round" stroke-linejoin="round"/>
</svg>
