<svg width="119" height="111" viewBox="0 0 119 111" fill="none" xmlns="http://www.w3.org/2000/svg">
<path d="M118.5 55.5C118.5 85.8435 92.1181 110.5 59.5 110.5C26.8819 110.5 0.5 85.8435 0.5 55.5C0.5 25.1565 26.8819 0.5 59.5 0.5C92.1181 0.5 118.5 25.1565 118.5 55.5Z" fill="white" stroke="#447151"/>
<path d="M80.6704 47.6579L79.677 45.4591C83.0792 38.2803 82.8536 38.0669 82.1929 37.4442L77.8466 33.48L77.4153 33.1407H76.9118C76.6463 33.1407 75.8536 33.1407 69.2468 35.9382L66.8152 35.0229C63.6725 27.75 63.3503 27.75 62.43 27.75H56.2988C55.3796 27.75 55.0223 27.749 52.1076 35.0489L49.6865 35.9665C45.2218 34.2066 42.6033 33.3156 41.8967 33.3156L41.3171 33.3324L36.6422 37.6114C35.9328 38.2342 35.6852 38.4537 39.2825 45.5215L38.2927 47.7126C30.3333 50.5852 30.3333 50.8638 30.3333 51.7428V57.3551C30.3333 58.2355 30.3333 58.5458 38.3194 61.2165L39.3091 63.4037C35.9074 70.5787 36.1359 70.7941 36.7968 71.4109L41.1431 75.38L41.5754 75.7269H42.0813C42.3428 75.7269 43.1257 75.7269 49.7417 72.9237L52.169 73.8452C55.3122 81.1171 55.635 81.1154 56.5573 81.1154H62.6896C63.6273 81.1154 63.9599 81.1154 66.8833 73.8193L69.3167 72.9006C73.7763 74.6611 76.3888 75.5549 77.091 75.5549L77.6745 75.5395L82.3853 71.2343C83.0554 70.6029 83.2901 70.3846 79.7128 63.3461L80.6958 61.1532C88.6667 58.2778 88.6667 57.9759 88.6667 57.1168V51.5107C88.6658 50.6275 88.6658 50.3191 80.6704 47.6579ZM59.4985 63.769C53.876 63.769 49.2977 59.5779 49.2977 54.4283C49.2977 49.2825 53.8761 45.0955 59.4985 45.0955C65.1181 45.0955 69.6867 49.2834 69.6867 54.4283C69.6857 59.5779 65.117 63.769 59.4985 63.769Z" fill="#447151" stroke="#447151"/>
</svg>
