<svg width="56" height="68" viewBox="0 0 56 68" fill="none" xmlns="http://www.w3.org/2000/svg">
<path d="M28.5231 66.6494C32.2799 64.0872 55 47.83 55 29.4095C55 16.4808 42.9117 6 28 6C13.0883 6 1 16.4808 1 29.4095C1 47.83 23.72 64.0872 27.4769 66.6494C27.8028 66.8717 28.1972 66.8717 28.5231 66.6494Z" fill="white" stroke="#447151" stroke-width="2" stroke-linecap="round" stroke-linejoin="round"/>
<path d="M26.8516 54.5469C24.0911 54.5469 21.6302 54.0391 19.4688 53.0234C17.3203 52.0078 15.6146 50.6081 14.3516 48.8242C13.0885 47.0404 12.431 44.9961 12.3789 42.6914H20.582C20.6732 44.2409 21.3242 45.4974 22.5352 46.4609C23.7461 47.4245 25.1849 47.9062 26.8516 47.9062C28.1797 47.9062 29.3516 47.6133 30.3672 47.0273C31.3958 46.4284 32.1966 45.6016 32.7695 44.5469C33.3555 43.4792 33.6484 42.2552 33.6484 40.875C33.6484 39.4687 33.349 38.2318 32.75 37.1641C32.1641 36.0964 31.3503 35.263 30.3086 34.6641C29.2669 34.0651 28.0755 33.7591 26.7344 33.7461C25.5625 33.7461 24.4232 33.987 23.3164 34.4687C22.2227 34.9505 21.3698 35.6081 20.7578 36.4414L13.2383 35.0938L15.1328 14H39.5859V20.9141H22.1055L21.0703 30.9336H21.3047C22.0078 29.944 23.069 29.1237 24.4883 28.4727C25.9076 27.8216 27.4961 27.4961 29.2539 27.4961C31.6628 27.4961 33.8112 28.0625 35.6992 29.1953C37.5872 30.3281 39.0781 31.8841 40.1719 33.8633C41.2656 35.8294 41.806 38.0951 41.793 40.6602C41.806 43.3555 41.181 45.7513 39.918 47.8477C38.668 49.931 36.9167 51.5716 34.6641 52.7695C32.4245 53.9544 29.8203 54.5469 26.8516 54.5469Z" fill="#447151"/>
</svg>
