<svg width="63" height="60" viewBox="0 0 63 60" fill="none" xmlns="http://www.w3.org/2000/svg">
<path d="M36.3876 59.2966C40.0325 56.9042 62 41.7743 62 24.6317C62 12.5961 50.3048 2.83936 35.878 2.83936C21.4512 2.83936 9.75598 12.5961 9.75598 24.6317C9.75598 41.7743 31.7235 56.9042 35.3685 59.2966C35.6877 59.5061 36.0683 59.5061 36.3876 59.2966Z" fill="#ED7124" stroke="#ED7124" stroke-linecap="round" stroke-linejoin="round"/>
<path d="M36.5895 42.348C35.1312 42.348 33.8178 42.058 32.6495 41.478C31.4812 40.898 30.5449 40.1025 29.8406 39.0916C29.1362 38.0807 28.7509 36.929 28.6847 35.6364H31.6676C31.7836 36.7881 32.3056 37.741 33.2337 38.495C34.17 39.2408 35.2886 39.6136 36.5895 39.6136C37.6335 39.6136 38.5616 39.3692 39.3736 38.8803C40.1939 38.3915 40.8361 37.7203 41.3001 36.8668C41.7724 36.0051 42.0085 35.0315 42.0085 33.946C42.0085 32.8357 41.7641 31.8455 41.2752 30.9755C40.7946 30.0972 40.1317 29.4053 39.2866 28.8999C38.4414 28.3944 37.4761 28.1375 36.3906 28.1293C35.6117 28.121 34.8121 28.2411 33.9918 28.4897C33.1715 28.73 32.4962 29.0407 31.9659 29.4219L29.0824 29.0739L30.6236 16.5455H43.848V19.2798H33.2088L32.3139 26.7869H32.4631C32.9851 26.3726 33.6397 26.0288 34.4268 25.7553C35.214 25.4819 36.0343 25.3452 36.8878 25.3452C38.4455 25.3452 39.8335 25.718 41.0515 26.4638C42.2778 27.2012 43.239 28.2121 43.935 29.4964C44.6393 30.7808 44.9915 32.2474 44.9915 33.8963C44.9915 35.5204 44.6269 36.9704 43.8977 38.2464C43.1768 39.5142 42.1825 40.5168 40.9148 41.2543C39.647 41.9834 38.2053 42.348 36.5895 42.348Z" fill="white"/>
<path d="M32.6495 41.478L32.4272 41.9258L32.4272 41.9258L32.6495 41.478ZM29.8406 39.0916L30.2508 38.8058L30.2508 38.8058L29.8406 39.0916ZM28.6847 35.6364V35.1364H28.1584L28.1853 35.662L28.6847 35.6364ZM31.6676 35.6364L32.1651 35.5863L32.1198 35.1364H31.6676V35.6364ZM33.2337 38.495L32.9184 38.8831L32.9222 38.8861L33.2337 38.495ZM39.3736 38.8803L39.1176 38.4508L39.1157 38.452L39.3736 38.8803ZM41.3001 36.8668L40.8616 36.6265L40.8608 36.628L41.3001 36.8668ZM41.2752 30.9755L40.8366 31.2155L40.8393 31.2204L41.2752 30.9755ZM36.3906 28.1293L36.3853 28.6292L36.3868 28.6292L36.3906 28.1293ZM33.9918 28.4897L34.1324 28.9696L34.1368 28.9682L33.9918 28.4897ZM31.9659 29.4219L31.906 29.9183L32.0995 29.9416L32.2577 29.8279L31.9659 29.4219ZM29.0824 29.0739L28.5861 29.0128L28.5249 29.5102L29.0225 29.5703L29.0824 29.0739ZM30.6236 16.5455V16.0455H30.1813L30.1273 16.4844L30.6236 16.5455ZM43.848 16.5455H44.348V16.0455H43.848V16.5455ZM43.848 19.2798V19.7798H44.348V19.2798H43.848ZM33.2088 19.2798V18.7798H32.7649L32.7123 19.2206L33.2088 19.2798ZM32.3139 26.7869L31.8174 26.7277L31.7508 27.2869H32.3139V26.7869ZM32.4631 26.7869V27.2869H32.6374L32.7739 27.1786L32.4631 26.7869ZM41.0515 26.4638L40.7904 26.8902L40.7938 26.8923L41.0515 26.4638ZM43.935 29.4964L43.4954 29.7347L43.4966 29.7369L43.935 29.4964ZM43.8977 38.2464L43.4636 37.9984L43.4631 37.9993L43.8977 38.2464ZM40.9148 41.2543L41.1641 41.6877L41.1662 41.6865L40.9148 41.2543ZM36.5895 41.848C35.1991 41.848 33.9633 41.572 32.8718 41.0301L32.4272 41.9258C33.6724 42.544 35.0632 42.848 36.5895 42.848V41.848ZM32.8718 41.0301C31.7742 40.4852 30.9042 39.7437 30.2508 38.8058L29.4303 39.3774C30.1855 40.4613 31.1882 41.3107 32.4272 41.9258L32.8718 41.0301ZM30.2508 38.8058C29.6027 37.8756 29.2458 36.8149 29.184 35.6108L28.1853 35.662C28.2561 37.043 28.6698 38.2859 29.4303 39.3774L30.2508 38.8058ZM28.6847 36.1364H31.6676V35.1364H28.6847V36.1364ZM31.1701 35.6865C31.3 36.9754 31.8909 38.0482 32.9184 38.8831L33.549 38.107C32.7204 37.4338 32.2673 36.6008 32.1651 35.5863L31.1701 35.6865ZM32.9222 38.8861C33.9549 39.7086 35.1859 40.1136 36.5895 40.1136V39.1136C35.3913 39.1136 34.3851 38.7729 33.5452 38.1039L32.9222 38.8861ZM36.5895 40.1136C37.7149 40.1136 38.7338 39.8491 39.6315 39.3087L39.1157 38.452C38.3893 38.8893 37.5522 39.1136 36.5895 39.1136V40.1136ZM39.6296 39.3098C40.5284 38.7742 41.2332 38.0365 41.7393 37.1057L40.8608 36.628C40.4389 37.404 39.8594 38.0087 39.1176 38.4508L39.6296 39.3098ZM41.7385 37.1071C42.2553 36.1643 42.5085 35.1065 42.5085 33.946H41.5085C41.5085 34.9565 41.2894 35.8459 40.8616 36.6265L41.7385 37.1071ZM42.5085 33.946C42.5085 32.7598 42.2466 31.6835 41.7111 30.7306L40.8393 31.2204C41.2816 32.0075 41.5085 32.9116 41.5085 33.946H42.5085ZM41.7138 30.7355C41.1913 29.7804 40.4661 29.0227 39.5432 28.4707L39.0299 29.329C39.7974 29.7879 40.398 30.4139 40.8366 31.2155L41.7138 30.7355ZM39.5432 28.4707C38.6139 27.915 37.5596 27.6382 36.3944 27.6293L36.3868 28.6292C37.3926 28.6369 38.2689 28.8738 39.0299 29.329L39.5432 28.4707ZM36.3959 27.6293C35.5613 27.6204 34.711 27.7493 33.8468 28.0112L34.1368 28.9682C34.9133 28.7329 35.6622 28.6215 36.3853 28.6292L36.3959 27.6293ZM33.8513 28.0099C32.9925 28.2614 32.262 28.5933 31.6741 29.0159L32.2577 29.8279C32.7304 29.4881 33.3505 29.1986 34.1324 28.9695L33.8513 28.0099ZM32.0258 28.9255L29.1423 28.5775L29.0225 29.5703L31.906 29.9183L32.0258 28.9255ZM29.5786 29.1349L31.1198 16.6065L30.1273 16.4844L28.5861 29.0128L29.5786 29.1349ZM30.6236 17.0455H43.848V16.0455H30.6236V17.0455ZM43.348 16.5455V19.2798H44.348V16.5455H43.348ZM43.848 18.7798H33.2088V19.7798H43.848V18.7798ZM32.7123 19.2206L31.8174 26.7277L32.8104 26.8461L33.7053 19.339L32.7123 19.2206ZM32.3139 27.2869H32.4631V26.2869H32.3139V27.2869ZM32.7739 27.1786C33.2424 26.8067 33.8441 26.4871 34.5909 26.2276L34.2628 25.283C33.4352 25.5705 32.7277 25.9385 32.1522 26.3953L32.7739 27.1786ZM34.5909 26.2276C35.324 25.973 36.0888 25.8452 36.8878 25.8452V24.8452C35.9798 24.8452 35.104 24.9908 34.2628 25.283L34.5909 26.2276ZM36.8878 25.8452C38.3621 25.8452 39.658 26.1969 40.7904 26.8902L41.3126 26.0374C40.0089 25.2392 38.529 24.8452 36.8878 24.8452V25.8452ZM40.7938 26.8923C41.9419 27.5827 42.841 28.5272 43.4954 29.7347L44.3746 29.2582C43.637 27.8971 42.6137 26.8198 41.3092 26.0353L40.7938 26.8923ZM43.4966 29.7369C44.1556 30.9386 44.4915 32.3207 44.4915 33.8963H45.4915C45.4915 32.1741 45.123 30.6229 44.3734 29.256L43.4966 29.7369ZM44.4915 33.8963C44.4915 35.4427 44.1452 36.8056 43.4636 37.9984L44.3318 38.4945C45.1086 37.1352 45.4915 35.598 45.4915 33.8963H44.4915ZM43.4631 37.9993C42.7861 39.1898 41.8552 40.1288 40.6634 40.8221L41.1662 41.6865C42.5098 40.9049 43.5676 39.8386 44.3324 38.4936L43.4631 37.9993ZM40.6655 40.8208C39.4813 41.5019 38.1272 41.848 36.5895 41.848V42.848C38.2833 42.848 39.8127 42.4649 41.1641 41.6877L40.6655 40.8208Z" fill="white" fill-opacity="0.81"/>
</svg>
