<?xml version="1.0" standalone="no"?>
<!DOCTYPE svg PUBLIC "-//W3C//DTD SVG 20010904//EN"
 "http://www.w3.org/TR/2001/REC-SVG-20010904/DTD/svg10.dtd">
<svg version="1.0" xmlns="http://www.w3.org/2000/svg"
 width="500.000000pt" height="500.000000pt" viewBox="0 0 500.000000 500.000000"
 preserveAspectRatio="xMidYMid meet">

<g transform="translate(0.000000,500.000000) scale(0.100000,-0.100000)"
fill="#000000" stroke="none">
<path d="M2330 4909 c-501 -51 -955 -316 -1255 -734 -78 -108 -194 -336 -234
-460 -71 -220 -96 -422 -81 -650 17 -261 77 -485 189 -700 62 -120 1540 -2365
1556 -2365 9 0 533 790 1296 1951 288 438 363 595 421 880 20 100 23 142 22
334 0 198 -3 232 -27 346 -33 157 -72 270 -146 424 -315 655 -1017 1047 -1741
974z m425 -254 c204 -36 426 -134 596 -262 276 -208 465 -504 541 -851 30
-133 32 -434 5 -562 -125 -582 -566 -1015 -1147 -1126 -131 -25 -380 -25 -510
0 -186 36 -384 118 -547 227 -105 70 -305 272 -375 379 -72 111 -128 224 -166
335 -51 151 -63 226 -69 425 -5 163 -3 200 16 298 53 278 176 514 374 719 111
114 216 197 337 263 154 84 353 149 525 169 104 13 306 6 420 -14z"/>
<path d="M2393 4518 c-290 -19 -574 -151 -791 -367 -167 -166 -274 -354 -340
-601 -22 -84 -25 -115 -26 -275 -1 -139 3 -199 17 -265 39 -182 113 -351 213
-491 51 -71 180 -206 249 -262 126 -101 297 -185 465 -229 149 -40 379 -50
530 -24 396 69 749 332 930 695 41 82 94 244 111 341 21 116 16 343 -10 467
-82 392 -338 721 -696 893 -203 98 -404 135 -652 118z m120 -420 c16 -33 19
-77 24 -377 l6 -339 -27 -56 c-32 -66 -87 -116 -173 -159 l-63 -31 0 -309 c0
-195 -4 -325 -11 -353 -26 -103 -146 -129 -199 -42 -19 31 -20 51 -20 370 l0
336 -30 7 c-47 10 -143 78 -171 121 -51 77 -54 100 -53 374 1 140 6 293 12
339 15 122 57 168 113 122 l24 -19 5 -282 c6 -316 4 -310 81 -310 69 0 69 0
69 291 0 205 3 267 15 294 15 37 46 55 78 47 41 -11 47 -56 47 -340 0 -302 1
-306 65 -304 67 3 65 -4 65 291 0 146 4 281 10 300 15 52 38 72 79 69 30 -3
39 -9 54 -40z m631 26 c14 -6 16 -88 16 -835 0 -892 1 -882 -51 -909 -32 -18
-124 -8 -150 16 -45 40 -49 67 -49 352 l0 269 -42 7 c-60 10 -111 66 -139 153
-41 132 -36 437 12 618 46 176 134 288 259 326 31 9 123 11 144 3z"/>
</g>
</svg>
